<svg width="157" height="41" viewBox="0 0 157 41" fill="none" xmlns="http://www.w3.org/2000/svg">
<path d="M65.0674 31H61.0273V13.1992H49.7686V31H45.749V0.750977H49.7686V13.0146C49.7959 12.4814 49.9189 11.9824 50.1377 11.5176C50.3564 11.0391 50.6436 10.6289 50.999 10.2871C51.3682 9.93164 51.792 9.6582 52.2705 9.4668C52.749 9.26172 53.2617 9.15918 53.8086 9.15918H61.0273C61.5879 9.15918 62.1143 9.26855 62.6064 9.4873C63.0986 9.69238 63.5225 9.97949 63.8779 10.3486C64.2471 10.7041 64.5342 11.1279 64.7393 11.6201C64.958 12.1123 65.0674 12.6387 65.0674 13.1992V31ZM90.6816 26.96C90.6816 27.5205 90.5723 28.0469 90.3535 28.5391C90.1484 29.0312 89.8613 29.4619 89.4922 29.8311C89.1367 30.1865 88.7129 30.4736 88.2207 30.6924C87.7422 30.8975 87.2227 31 86.6621 31H75.8135C75.2666 31 74.7471 30.8975 74.2549 30.6924C73.7627 30.4736 73.332 30.1865 72.9629 29.8311C72.6074 29.4619 72.3203 29.0312 72.1016 28.5391C71.8965 28.0469 71.7939 27.5205 71.7939 26.96V13.1992C71.7939 12.6387 71.8965 12.1123 72.1016 11.6201C72.3203 11.1279 72.6074 10.7041 72.9629 10.3486C73.332 9.97949 73.7627 9.69238 74.2549 9.4873C74.7471 9.26855 75.2666 9.15918 75.8135 9.15918H86.6621C87.2227 9.15918 87.7422 9.26855 88.2207 9.4873C88.7129 9.69238 89.1367 9.97949 89.4922 10.3486C89.8613 10.7041 90.1484 11.1279 90.3535 11.6201C90.5723 12.1123 90.6816 12.6387 90.6816 13.1992V26.96ZM75.8135 13.1992V26.96H86.6621V13.1992H75.8135ZM114.737 13.1992V31H110.697V13.1992H101.448V31H97.4287V9.15918H101.448V13.0146C101.476 12.4814 101.599 11.9824 101.817 11.5176C102.036 11.0391 102.323 10.6289 102.679 10.2871C103.048 9.93164 103.472 9.6582 103.95 9.4668C104.429 9.26172 104.941 9.15918 105.488 9.15918H110.697C111.23 9.15918 111.736 9.26172 112.215 9.4668C112.693 9.6582 113.117 9.93164 113.486 10.2871C113.855 10.6289 114.149 11.0391 114.368 11.5176C114.601 11.9824 114.724 12.4814 114.737 13.0146C114.765 12.4814 114.881 11.9824 115.086 11.5176C115.305 11.0391 115.592 10.6289 115.947 10.2871C116.316 9.93164 116.74 9.6582 117.219 9.4668C117.697 9.26172 118.21 9.15918 118.757 9.15918H123.966C124.526 9.15918 125.053 9.26855 125.545 9.4873C126.037 9.69238 126.461 9.97949 126.816 10.3486C127.186 10.7041 127.473 11.1279 127.678 11.6201C127.896 12.1123 128.006 12.6387 128.006 13.1992V31H123.966V13.1992H114.737ZM153.23 22.1406H138.772V26.96H153.23V31H138.772C138.226 31 137.706 30.8975 137.214 30.6924C136.722 30.4736 136.291 30.1865 135.922 29.8311C135.566 29.4619 135.279 29.0312 135.061 28.5391C134.855 28.0469 134.753 27.5205 134.753 26.96V13.1992C134.753 12.6387 134.855 12.1123 135.061 11.6201C135.279 11.1279 135.566 10.7041 135.922 10.3486C136.291 9.97949 136.722 9.69238 137.214 9.4873C137.706 9.26855 138.226 9.15918 138.772 9.15918H149.19C149.751 9.15918 150.277 9.26855 150.77 9.4873C151.262 9.69238 151.686 9.97949 152.041 10.3486C152.41 10.7041 152.697 11.1279 152.902 11.6201C153.121 12.1123 153.23 12.6387 153.23 13.1992V22.1406ZM138.772 13.1992V18.1006H149.19V13.1992H138.772Z" fill="white"/>
<path d="M0.93934 16.9393C0.353553 17.5251 0.353553 18.4749 0.93934 19.0607L10.4853 28.6066C11.0711 29.1924 12.0208 29.1924 12.6066 28.6066C13.1924 28.0208 13.1924 27.0711 12.6066 26.4853L4.12132 18L12.6066 9.51472C13.1924 8.92893 13.1924 7.97918 12.6066 7.3934C12.0208 6.80761 11.0711 6.80761 10.4853 7.3934L0.93934 16.9393ZM34 16.5L2 16.5V19.5L34 19.5V16.5Z" fill="white"/>
</svg>
