<svg width="479" height="269" viewBox="0 0 479 269" fill="none" xmlns="http://www.w3.org/2000/svg">
<g filter="url(#filter0_d_205_24)">
<circle cx="237.5" cy="133.5" r="122.5" fill="url(#paint0_radial_205_24)"/>
</g>
<g filter="url(#filter1_d_205_24)">
<path d="M30.6156 91.22C33.0076 91.22 35.0009 91.6187 36.5956 92.416C38.2249 93.2133 39.4383 94.3573 40.2356 95.848C41.0676 97.304 41.4836 99.072 41.4836 101.152C41.4836 102.331 41.3103 103.527 40.9636 104.74C40.6169 105.953 40.0623 107.149 39.2996 108.328C38.5369 109.507 37.5316 110.633 36.2836 111.708C35.0356 112.748 33.5103 113.684 31.7076 114.516V131H27.1316V112.124C28.6569 111.639 30.0089 111.032 31.1876 110.304C32.4009 109.576 33.4236 108.761 34.2556 107.86C35.0876 106.924 35.7116 105.901 36.1276 104.792C36.5783 103.683 36.8036 102.521 36.8036 101.308C36.8036 99.9213 36.5783 98.7773 36.1276 97.876C35.6769 96.94 34.9663 96.2293 33.9956 95.744C33.0596 95.2587 31.8636 95.016 30.4076 95.016C29.6103 95.016 28.7783 95.12 27.9116 95.328C27.0449 95.536 26.1783 95.8307 25.3116 96.212C24.4796 96.5933 23.7169 97.044 23.0236 97.564L21.3076 94.132C22.5209 93.2307 23.9249 92.52 25.5196 92C27.1143 91.48 28.8129 91.22 30.6156 91.22ZM49.3242 124.5V118H42.8242V111.5H49.3242V105H75.3242V98.5H49.3242V92H81.8242V98.5H88.3242V124.5H49.3242ZM55.8242 118H75.3242V111.5H55.8242V118ZM101.324 131V124.5H127.324V118H101.324V111.5H94.8242V92H107.824V111.5H127.324V92H140.324V124.5H133.824V131H101.324ZM156.756 91.22C159.148 91.22 161.142 91.6187 162.736 92.416C164.366 93.2133 165.579 94.3573 166.376 95.848C167.208 97.304 167.624 99.072 167.624 101.152C167.624 102.331 167.451 103.527 167.104 104.74C166.758 105.953 166.203 107.149 165.44 108.328C164.678 109.507 163.672 110.633 162.424 111.708C161.176 112.748 159.651 113.684 157.848 114.516V131H153.272V112.124C154.798 111.639 156.15 111.032 157.328 110.304C158.542 109.576 159.564 108.761 160.396 107.86C161.228 106.924 161.852 105.901 162.268 104.792C162.719 103.683 162.944 102.521 162.944 101.308C162.944 99.9213 162.719 98.7773 162.268 97.876C161.818 96.94 161.107 96.2293 160.136 95.744C159.2 95.2587 158.004 95.016 156.548 95.016C155.751 95.016 154.919 95.12 154.052 95.328C153.186 95.536 152.319 95.8307 151.452 96.212C150.62 96.5933 149.858 97.044 149.164 97.564L147.448 94.132C148.662 93.2307 150.066 92.52 151.66 92C153.255 91.48 154.954 91.22 156.756 91.22ZM175.465 124.5V118H168.965V111.5H175.465V105H201.465V98.5H175.465V92H207.965V98.5H214.465V124.5H175.465ZM181.965 118H201.465V111.5H181.965V118ZM246.965 85.5V79H259.965V85.5H246.965ZM227.465 131V124.5H246.965V98.5H240.465V92H259.965V124.5H253.465V131H227.465ZM270.573 99.488C270.122 98.6907 269.516 97.8413 268.753 96.94C267.99 96.004 267.193 95.0853 266.361 94.184C265.529 93.2827 264.801 92.5027 264.177 91.844V91.168H267.297C268.198 91.7573 269.134 92.468 270.105 93.3C271.076 94.132 271.994 95.016 272.861 95.952C273.797 95.016 274.75 94.132 275.721 93.3C276.692 92.468 277.628 91.7573 278.529 91.168H281.753V91.844C281.094 92.5027 280.332 93.2827 279.465 94.184C278.633 95.0853 277.818 96.004 277.021 96.94C276.258 97.8413 275.669 98.6907 275.253 99.488H270.573ZM279.465 124.5V118H272.965V92H285.965V118H305.465V92H318.465V124.5H279.465ZM337.965 124.5V118H331.465V111.5H324.965V92H331.465V85.5H337.965V79H357.465V85.5H363.965V92H370.465V111.5H363.965V118H357.465V124.5H337.965ZM337.965 98.5H357.465V92H350.965V85.5H344.465V92H337.965V98.5ZM344.465 118H350.965V111.5H357.465V105H337.965V111.5H344.465V118ZM390.017 102.608C392.686 102.608 395.026 103.145 397.037 104.22C399.048 105.295 400.608 106.889 401.717 109.004C402.861 111.119 403.433 113.736 403.433 116.856C403.433 119.907 402.913 122.524 401.873 124.708C400.868 126.892 399.429 128.573 397.557 129.752C395.72 130.931 393.57 131.52 391.109 131.52C388.752 131.52 386.706 131 384.973 129.96C383.24 128.92 381.905 127.464 380.969 125.592C380.068 123.685 379.617 121.467 379.617 118.936V116.18H398.701C398.632 113.025 397.817 110.633 396.257 109.004C394.732 107.34 392.582 106.508 389.809 106.508C388.041 106.508 386.464 106.681 385.077 107.028C383.725 107.34 382.321 107.808 380.865 108.432V104.428C382.286 103.804 383.69 103.353 385.077 103.076C386.464 102.764 388.11 102.608 390.017 102.608ZM384.401 119.82C384.436 121.38 384.678 122.767 385.129 123.98C385.614 125.159 386.36 126.095 387.365 126.788C388.37 127.447 389.636 127.776 391.161 127.776C393.345 127.776 395.061 127.083 396.309 125.696C397.592 124.275 398.354 122.316 398.597 119.82H384.401ZM406.316 124.5V92H445.316V98.5H451.816V124.5H438.816V98.5H432.316V124.5H419.316V98.5H412.816V124.5H406.316ZM103 181.5V155.5H90V149H103V136H116V149H129V155.5H116V181.5H103ZM142 181.5V175H135.5V155.5H142V149H174.5V155.5H181V168.5H148.5V175H174.5V181.5H142ZM148.5 162H168V155.5H148.5V162ZM207 181.5V155.5H194V149H207V136H220V149H233V155.5H220V181.5H207ZM259 155.5H265.5V162H259V181.5H246V149H259V155.5ZM285 149V155.5H265.5V149H285ZM311 142.5V136H324V142.5H311ZM298 181.5V175H311V155.5H304.5V149H324V175H337V181.5H298ZM343.5 181.5V175H376V168.5H350V162H343.5V155.5H350V149H382.5V155.5H356.5V162H382.5V168.5H389V175H382.5V181.5H343.5Z" fill="white"/>
</g>
<defs>
<filter id="filter0_d_205_24" x="104" y="0" width="269" height="269" filterUnits="userSpaceOnUse" color-interpolation-filters="sRGB">
<feFlood flood-opacity="0" result="BackgroundImageFix"/>
<feColorMatrix in="SourceAlpha" type="matrix" values="0 0 0 0 0 0 0 0 0 0 0 0 0 0 0 0 0 0 127 0" result="hardAlpha"/>
<feOffset dx="1" dy="1"/>
<feGaussianBlur stdDeviation="6"/>
<feComposite in2="hardAlpha" operator="out"/>
<feColorMatrix type="matrix" values="0 0 0 0 0.980392 0 0 0 0 0.847059 0 0 0 0 0.356863 0 0 0 1 0"/>
<feBlend mode="normal" in2="BackgroundImageFix" result="effect1_dropShadow_205_24"/>
<feBlend mode="normal" in="SourceGraphic" in2="effect1_dropShadow_205_24" result="shape"/>
</filter>
<filter id="filter1_d_205_24" x="21.3076" y="79" width="436.509" height="108.5" filterUnits="userSpaceOnUse" color-interpolation-filters="sRGB">
<feFlood flood-opacity="0" result="BackgroundImageFix"/>
<feColorMatrix in="SourceAlpha" type="matrix" values="0 0 0 0 0 0 0 0 0 0 0 0 0 0 0 0 0 0 127 0" result="hardAlpha"/>
<feOffset dx="4" dy="4"/>
<feGaussianBlur stdDeviation="1"/>
<feComposite in2="hardAlpha" operator="out"/>
<feColorMatrix type="matrix" values="0 0 0 0 0.94902 0 0 0 0 0.564706 0 0 0 0 0.2 0 0 0 1 0"/>
<feBlend mode="normal" in2="BackgroundImageFix" result="effect1_dropShadow_205_24"/>
<feBlend mode="normal" in="SourceGraphic" in2="effect1_dropShadow_205_24" result="shape"/>
</filter>
<radialGradient id="paint0_radial_205_24" cx="0" cy="0" r="1" gradientUnits="userSpaceOnUse" gradientTransform="translate(287.756 58.7476) rotate(81.6445) scale(100.871 95.7809)">
<stop stop-color="#FDF455"/>
<stop offset="0.970067" stop-color="#FAD85B"/>
</radialGradient>
</defs>
</svg>
