<svg width="663" height="378" viewBox="0 0 663 378" fill="none" xmlns="http://www.w3.org/2000/svg">
<g filter="url(#filter0_d_501_11)">
<circle cx="331" cy="188" r="175" fill="url(#paint0_radial_501_11)"/>
</g>
<g filter="url(#filter1_d_501_11)">
<path d="M112.134 110.975C116.327 110.975 119.897 111.768 122.844 113.355C125.847 114.885 128.142 116.982 129.729 119.645C131.315 122.308 132.109 125.34 132.109 128.74C132.109 131.177 131.769 133.415 131.089 135.455C130.465 137.495 129.502 139.393 128.199 141.15C126.895 142.907 125.252 144.522 123.269 145.995C121.342 147.468 119.104 148.857 116.554 150.16V176H103.889V144.805C107.062 143.728 109.64 142.538 111.624 141.235C113.664 139.932 115.222 138.6 116.299 137.24C117.432 135.88 118.225 134.52 118.679 133.16C119.132 131.8 119.359 130.497 119.359 129.25C119.359 127.663 118.99 126.275 118.254 125.085C117.517 123.838 116.525 122.875 115.279 122.195C114.032 121.515 112.587 121.175 110.944 121.175C109.244 121.175 107.572 121.43 105.929 121.94C104.285 122.393 102.784 122.932 101.424 123.555C100.12 124.178 99.0436 124.745 98.1936 125.255L93.6886 116.16C96.4653 114.63 99.3553 113.383 102.359 112.42C105.362 111.457 108.62 110.975 112.134 110.975ZM149.065 176.68C146.402 176.68 144.164 176.255 142.35 175.405C140.594 174.498 139.262 173.082 138.355 171.155C137.449 169.172 136.995 166.622 136.995 163.505C136.995 160.218 137.364 157.64 138.1 155.77C138.894 153.843 140.282 152.455 142.265 151.605C144.305 150.755 147.167 150.33 150.85 150.33C151.36 150.33 152.04 150.358 152.89 150.415C153.74 150.415 154.675 150.443 155.695 150.5C156.772 150.5 157.82 150.528 158.84 150.585C159.917 150.585 160.909 150.613 161.815 150.67V149.14C161.815 147.78 161.702 146.732 161.475 145.995C161.249 145.202 160.795 144.663 160.115 144.38C159.492 144.04 158.529 143.842 157.225 143.785C155.922 143.672 154.194 143.615 152.04 143.615C150.737 143.615 149.32 143.643 147.79 143.7C146.317 143.757 144.844 143.842 143.37 143.955C141.897 144.012 140.565 144.097 139.375 144.21V133.415C141.642 133.018 144.277 132.678 147.28 132.395C150.284 132.112 153.542 131.97 157.055 131.97C160.965 131.97 164.195 132.225 166.745 132.735C169.295 133.188 171.307 133.897 172.78 134.86C174.31 135.823 175.415 137.042 176.095 138.515C176.832 139.932 177.314 141.603 177.54 143.53C177.767 145.457 177.88 147.638 177.88 150.075V176H162.325L161.985 171.07H161.22C160.087 172.77 158.84 174.017 157.48 174.81C156.177 175.603 154.817 176.113 153.4 176.34C151.984 176.567 150.539 176.68 149.065 176.68ZM156.715 165.97C157.565 165.97 158.245 165.913 158.755 165.8C159.322 165.63 159.804 165.403 160.2 165.12C160.654 164.78 160.965 164.383 161.135 163.93C161.419 163.42 161.589 162.825 161.645 162.145C161.759 161.408 161.815 160.558 161.815 159.595V157.555H156.29C155.044 157.555 154.08 157.668 153.4 157.895C152.777 158.065 152.38 158.49 152.21 159.17C152.04 159.793 151.955 160.757 151.955 162.06C151.955 163.023 152.04 163.817 152.21 164.44C152.38 165.007 152.805 165.403 153.485 165.63C154.165 165.857 155.242 165.97 156.715 165.97ZM205.625 193.51C203.812 193.51 201.942 193.453 200.015 193.34C198.088 193.227 196.247 193.085 194.49 192.915C192.79 192.745 191.345 192.547 190.155 192.32V181.78C191.628 181.837 193.017 181.865 194.32 181.865C195.623 181.865 196.87 181.865 198.06 181.865C199.307 181.865 200.497 181.865 201.63 181.865C204.18 181.865 206.135 181.78 207.495 181.61C208.912 181.497 209.932 181.185 210.555 180.675C211.178 180.165 211.547 179.372 211.66 178.295C211.83 177.275 211.915 175.83 211.915 173.96V169.965H211.15C210.3 171.438 209.223 172.6 207.92 173.45C206.673 174.243 205.342 174.81 203.925 175.15C202.508 175.433 201.035 175.575 199.505 175.575C196.672 175.575 194.405 175.207 192.705 174.47C191.005 173.733 189.73 172.657 188.88 171.24C188.03 169.767 187.463 168.01 187.18 165.97C186.897 163.873 186.755 161.437 186.755 158.66V132.65H202.82V154.495C202.82 156.478 202.848 158.065 202.905 159.255C203.018 160.388 203.217 161.21 203.5 161.72C203.783 162.23 204.208 162.542 204.775 162.655C205.398 162.768 206.22 162.825 207.24 162.825C208.373 162.825 209.252 162.74 209.875 162.57C210.498 162.343 210.952 161.947 211.235 161.38C211.518 160.813 211.688 159.963 211.745 158.83C211.858 157.697 211.915 156.195 211.915 154.325V132.65H227.98V171.24C227.98 174.98 227.782 178.238 227.385 181.015C227.045 183.792 226.167 186.087 224.75 187.9C223.39 189.77 221.18 191.158 218.12 192.065C215.117 193.028 210.952 193.51 205.625 193.51ZM251.172 110.975C255.365 110.975 258.935 111.768 261.882 113.355C264.885 114.885 267.18 116.982 268.767 119.645C270.353 122.308 271.147 125.34 271.147 128.74C271.147 131.177 270.807 133.415 270.127 135.455C269.503 137.495 268.54 139.393 267.237 141.15C265.933 142.907 264.29 144.522 262.307 145.995C260.38 147.468 258.142 148.857 255.592 150.16V176H242.927V144.805C246.1 143.728 248.678 142.538 250.662 141.235C252.702 139.932 254.26 138.6 255.337 137.24C256.47 135.88 257.263 134.52 257.717 133.16C258.17 131.8 258.397 130.497 258.397 129.25C258.397 127.663 258.028 126.275 257.292 125.085C256.555 123.838 255.563 122.875 254.317 122.195C253.07 121.515 251.625 121.175 249.982 121.175C248.282 121.175 246.61 121.43 244.967 121.94C243.323 122.393 241.822 122.932 240.462 123.555C239.158 124.178 238.082 124.745 237.232 125.255L232.727 116.16C235.503 114.63 238.393 113.383 241.397 112.42C244.4 111.457 247.658 110.975 251.172 110.975ZM288.104 176.68C285.44 176.68 283.202 176.255 281.389 175.405C279.632 174.498 278.3 173.082 277.394 171.155C276.487 169.172 276.034 166.622 276.034 163.505C276.034 160.218 276.402 157.64 277.139 155.77C277.932 153.843 279.32 152.455 281.304 151.605C283.344 150.755 286.205 150.33 289.889 150.33C290.399 150.33 291.079 150.358 291.929 150.415C292.779 150.415 293.714 150.443 294.734 150.5C295.81 150.5 296.859 150.528 297.879 150.585C298.955 150.585 299.947 150.613 300.854 150.67V149.14C300.854 147.78 300.74 146.732 300.514 145.995C300.287 145.202 299.834 144.663 299.154 144.38C298.53 144.04 297.567 143.842 296.264 143.785C294.96 143.672 293.232 143.615 291.079 143.615C289.775 143.615 288.359 143.643 286.829 143.7C285.355 143.757 283.882 143.842 282.409 143.955C280.935 144.012 279.604 144.097 278.414 144.21V133.415C280.68 133.018 283.315 132.678 286.319 132.395C289.322 132.112 292.58 131.97 296.094 131.97C300.004 131.97 303.234 132.225 305.784 132.735C308.334 133.188 310.345 133.897 311.819 134.86C313.349 135.823 314.454 137.042 315.134 138.515C315.87 139.932 316.352 141.603 316.579 143.53C316.805 145.457 316.919 147.638 316.919 150.075V176H301.364L301.024 171.07H300.259C299.125 172.77 297.879 174.017 296.519 174.81C295.215 175.603 293.855 176.113 292.439 176.34C291.022 176.567 289.577 176.68 288.104 176.68ZM295.754 165.97C296.604 165.97 297.284 165.913 297.794 165.8C298.36 165.63 298.842 165.403 299.239 165.12C299.692 164.78 300.004 164.383 300.174 163.93C300.457 163.42 300.627 162.825 300.684 162.145C300.797 161.408 300.854 160.558 300.854 159.595V157.555H295.329C294.082 157.555 293.119 157.668 292.439 157.895C291.815 158.065 291.419 158.49 291.249 159.17C291.079 159.793 290.994 160.757 290.994 162.06C290.994 163.023 291.079 163.817 291.249 164.44C291.419 165.007 291.844 165.403 292.524 165.63C293.204 165.857 294.28 165.97 295.754 165.97ZM319.248 192.915V182.205C321.345 182.205 322.846 182.063 323.753 181.78C324.66 181.497 325.226 181.015 325.453 180.335C325.68 179.655 325.793 178.833 325.793 177.87V132.65H342.113V174.3C342.113 178.607 341.801 182.007 341.178 184.5C340.611 186.993 339.506 188.835 337.863 190.025C336.276 191.215 333.981 191.98 330.978 192.32C327.975 192.717 324.065 192.915 319.248 192.915ZM326.701 127.55L318.966 115.735V115.055H329.166L334.096 121.515L338.856 115.055H349.056V115.735L341.236 127.55H326.701ZM363.694 176.68C360.861 176.68 358.594 176.312 356.894 175.575C355.194 174.838 353.919 173.762 353.069 172.345C352.219 170.872 351.653 169.087 351.369 166.99C351.086 164.893 350.944 162.485 350.944 159.765V132.65H367.009V155.515C367.009 157.555 367.038 159.142 367.094 160.275C367.208 161.408 367.406 162.23 367.689 162.74C367.973 163.25 368.398 163.59 368.964 163.76C369.588 163.873 370.409 163.93 371.429 163.93C372.563 163.93 373.441 163.845 374.064 163.675C374.688 163.448 375.141 163.052 375.424 162.485C375.708 161.862 375.878 161.012 375.934 159.935C376.048 158.802 376.104 157.272 376.104 155.345V132.65H392.169V176H376.784L376.444 170.985H375.594C374.744 172.458 373.668 173.62 372.364 174.47C371.061 175.263 369.644 175.83 368.114 176.17C366.641 176.51 365.168 176.68 363.694 176.68ZM422.501 176.85C417.571 176.85 413.463 175.547 410.176 172.94C406.946 170.277 404.509 166.48 402.866 161.55C401.279 156.62 400.486 150.727 400.486 143.87C400.486 136.957 401.223 131.063 402.696 126.19C404.169 121.26 406.521 117.492 409.751 114.885C412.981 112.278 417.231 110.975 422.501 110.975C427.431 110.975 431.511 112.278 434.741 114.885C438.028 117.435 440.493 121.175 442.136 126.105C443.779 130.978 444.601 136.9 444.601 143.87C444.601 150.727 443.864 156.62 442.391 161.55C440.918 166.48 438.566 170.277 435.336 172.94C432.106 175.547 427.828 176.85 422.501 176.85ZM422.501 167.5C424.598 167.5 426.326 166.877 427.686 165.63C429.046 164.383 430.066 162.372 430.746 159.595C431.426 156.818 431.794 153.135 431.851 148.545H413.151C413.208 153.022 413.548 156.677 414.171 159.51C414.851 162.287 415.871 164.327 417.231 165.63C418.591 166.877 420.348 167.5 422.501 167.5ZM413.236 139.025H431.851C431.738 134.548 431.313 130.95 430.576 128.23C429.896 125.453 428.904 123.442 427.601 122.195C426.298 120.948 424.626 120.325 422.586 120.325C420.489 120.325 418.761 120.948 417.401 122.195C416.098 123.442 415.106 125.453 414.426 128.23C413.803 130.95 413.406 134.548 413.236 139.025ZM470.218 131.97C474.525 131.97 478.066 132.253 480.843 132.82C483.62 133.33 485.801 134.152 487.388 135.285C489.031 136.362 490.221 137.778 490.958 139.535C491.751 141.235 492.233 143.332 492.403 145.825C492.63 148.262 492.743 151.067 492.743 154.24C492.743 158.207 492.545 161.607 492.148 164.44C491.808 167.273 490.986 169.597 489.683 171.41C488.38 173.223 486.311 174.555 483.478 175.405C480.645 176.255 476.763 176.68 471.833 176.68C467.866 176.68 464.636 176.425 462.143 175.915C459.65 175.405 457.695 174.612 456.278 173.535C454.918 172.458 453.926 171.07 453.303 169.37C452.68 167.613 452.283 165.488 452.113 162.995C452 160.445 451.943 157.527 451.943 154.24V150.925H476.933C476.933 149.225 476.848 147.893 476.678 146.93C476.508 145.91 476.083 145.173 475.403 144.72C474.723 144.21 473.675 143.898 472.258 143.785C470.841 143.672 468.886 143.615 466.393 143.615C465.43 143.615 464.211 143.643 462.738 143.7C461.321 143.757 459.82 143.842 458.233 143.955C456.646 144.012 455.116 144.097 453.643 144.21V133.585C454.776 133.245 456.25 132.962 458.063 132.735C459.933 132.508 461.916 132.338 464.013 132.225C466.11 132.055 468.178 131.97 470.218 131.97ZM466.903 156.705V158.065C466.903 159.935 466.96 161.408 467.073 162.485C467.186 163.562 467.413 164.355 467.753 164.865C468.093 165.318 468.603 165.63 469.283 165.8C469.963 165.97 470.841 166.055 471.918 166.055C472.995 166.055 473.873 165.97 474.553 165.8C475.233 165.63 475.743 165.29 476.083 164.78C476.423 164.27 476.65 163.477 476.763 162.4C476.876 161.323 476.933 159.878 476.933 158.065H465.458L466.903 156.705ZM500.275 176V132.65H515.745L516.085 137.665H516.85C517.757 136.192 518.862 135.058 520.165 134.265C521.469 133.415 522.829 132.82 524.245 132.48C525.719 132.14 527.164 131.97 528.58 131.97C531.867 131.97 534.389 132.423 536.145 133.33C537.959 134.237 539.234 135.682 539.97 137.665H540.735C541.642 136.192 542.747 135.058 544.05 134.265C545.354 133.415 546.742 132.82 548.215 132.48C549.689 132.14 551.162 131.97 552.635 131.97C556.205 131.97 558.869 132.622 560.625 133.925C562.439 135.228 563.629 137.155 564.195 139.705C564.819 142.198 565.13 145.258 565.13 148.885V176H548.98V153.135C548.98 151.095 548.924 149.508 548.81 148.375C548.754 147.242 548.584 146.42 548.3 145.91C548.074 145.4 547.677 145.088 547.11 144.975C546.6 144.805 545.892 144.72 544.985 144.72C543.965 144.72 543.144 144.833 542.52 145.06C541.954 145.23 541.529 145.598 541.245 146.165C541.019 146.732 540.877 147.582 540.82 148.715C540.764 149.848 540.735 151.378 540.735 153.305V176H524.67V153.135C524.67 151.095 524.614 149.508 524.5 148.375C524.444 147.242 524.274 146.42 523.99 145.91C523.764 145.4 523.367 145.088 522.8 144.975C522.29 144.805 521.582 144.72 520.675 144.72C519.655 144.72 518.834 144.833 518.21 145.06C517.644 145.23 517.219 145.598 516.935 146.165C516.709 146.732 516.539 147.582 516.425 148.715C516.369 149.848 516.34 151.378 516.34 153.305V176H500.275Z" fill="white"/>
</g>
<g filter="url(#filter2_d_501_11)">
<path d="M229.24 265V233.295H221.675V221.65H229.24V209.07H245.56V221.65H254.57V233.295H245.56V265H229.24ZM281.257 265.68C277.007 265.68 273.494 265.425 270.717 264.915C267.941 264.348 265.731 263.527 264.087 262.45C262.501 261.317 261.311 259.9 260.517 258.2C259.781 256.443 259.299 254.347 259.072 251.91C258.902 249.417 258.817 246.583 258.817 243.41C258.817 239.443 258.987 236.043 259.327 233.21C259.724 230.377 260.574 228.053 261.877 226.24C263.181 224.427 265.249 223.095 268.082 222.245C270.916 221.395 274.797 220.97 279.727 220.97C283.694 220.97 286.924 221.225 289.417 221.735C291.911 222.245 293.837 223.038 295.197 224.115C296.614 225.192 297.634 226.608 298.257 228.365C298.881 230.065 299.249 232.19 299.362 234.74C299.532 237.233 299.617 240.123 299.617 243.41V246.725H274.627C274.627 248.425 274.712 249.785 274.882 250.805C275.052 251.768 275.449 252.505 276.072 253.015C276.752 253.468 277.801 253.752 279.217 253.865C280.691 253.978 282.646 254.035 285.082 254.035C286.159 254.035 287.377 254.007 288.737 253.95C290.154 253.893 291.656 253.837 293.242 253.78C294.886 253.667 296.444 253.553 297.917 253.44V264.065C296.784 264.405 295.282 264.688 293.412 264.915C291.599 265.142 289.644 265.312 287.547 265.425C285.451 265.595 283.354 265.68 281.257 265.68ZM284.657 240.945V239.585C284.657 237.715 284.601 236.242 284.487 235.165C284.374 234.088 284.119 233.323 283.722 232.87C283.382 232.36 282.872 232.02 282.192 231.85C281.569 231.68 280.719 231.595 279.642 231.595C278.509 231.595 277.602 231.68 276.922 231.85C276.299 232.02 275.817 232.36 275.477 232.87C275.137 233.38 274.911 234.173 274.797 235.25C274.684 236.327 274.627 237.772 274.627 239.585H286.102L284.657 240.945ZM312.165 265V233.295H304.6V221.65H312.165V209.07H328.485V221.65H337.495V233.295H328.485V265H312.165ZM343.432 265V221.65H358.902L359.242 228.96H360.007C360.857 226.863 361.849 225.248 362.982 224.115C364.172 222.982 365.617 222.188 367.317 221.735C369.017 221.225 371.001 220.97 373.267 220.97V235.25C369.867 235.25 367.147 235.647 365.107 236.44C363.067 237.177 361.622 238.593 360.772 240.69C359.922 242.73 359.497 245.705 359.497 249.615V265H343.432ZM379.541 213.83V201.845H395.946V213.83H379.541ZM379.541 265V221.65H395.861V265H379.541ZM422.542 265.68C420.615 265.68 418.547 265.623 416.337 265.51C414.127 265.397 411.974 265.255 409.877 265.085C407.837 264.915 405.995 264.717 404.352 264.49V253.865C405.315 253.922 406.364 254.007 407.497 254.12C408.63 254.177 409.764 254.233 410.897 254.29C412.03 254.347 413.107 254.403 414.127 254.46C415.147 254.46 416.082 254.46 416.932 254.46C419.652 254.46 421.579 254.403 422.712 254.29C423.902 254.177 424.639 253.922 424.922 253.525C425.205 253.128 425.347 252.533 425.347 251.74C425.347 251.173 425.262 250.748 425.092 250.465C424.979 250.125 424.61 249.898 423.987 249.785C423.42 249.615 422.429 249.445 421.012 249.275L410.897 248C408.63 247.66 406.93 246.923 405.797 245.79C404.664 244.6 403.899 243.042 403.502 241.115C403.162 239.132 402.992 236.837 402.992 234.23C402.992 231.227 403.445 228.847 404.352 227.09C405.315 225.277 406.619 223.945 408.262 223.095C409.962 222.188 411.945 221.622 414.212 221.395C416.535 221.112 419 220.97 421.607 220.97C423.534 220.97 425.517 221.027 427.557 221.14C429.597 221.253 431.495 221.395 433.252 221.565C435.065 221.735 436.567 221.962 437.757 222.245V232.785C436.227 232.672 434.697 232.587 433.167 232.53C431.637 232.417 430.22 232.332 428.917 232.275C427.67 232.218 426.65 232.19 425.857 232.19C423.477 232.19 421.692 232.247 420.502 232.36C419.369 232.417 418.632 232.615 418.292 232.955C417.952 233.238 417.782 233.777 417.782 234.57C417.782 235.137 417.839 235.59 417.952 235.93C418.122 236.213 418.462 236.44 418.972 236.61C419.482 236.723 420.36 236.865 421.607 237.035L430.872 238.225C432.742 238.452 434.357 238.905 435.717 239.585C437.134 240.265 438.21 241.512 438.947 243.325C439.74 245.082 440.137 247.773 440.137 251.4C440.137 254.743 439.684 257.378 438.777 259.305C437.927 261.175 436.68 262.563 435.037 263.47C433.45 264.377 431.58 264.972 429.427 265.255C427.33 265.538 425.035 265.68 422.542 265.68Z" fill="white"/>
</g>
<defs>
<filter id="filter0_d_501_11" x="143" y="0" width="378" height="378" filterUnits="userSpaceOnUse" color-interpolation-filters="sRGB">
<feFlood flood-opacity="0" result="BackgroundImageFix"/>
<feColorMatrix in="SourceAlpha" type="matrix" values="0 0 0 0 0 0 0 0 0 0 0 0 0 0 0 0 0 0 127 0" result="hardAlpha"/>
<feOffset dx="1" dy="1"/>
<feGaussianBlur stdDeviation="7"/>
<feComposite in2="hardAlpha" operator="out"/>
<feColorMatrix type="matrix" values="0 0 0 0 0.980392 0 0 0 0 0.847059 0 0 0 0 0.356863 0 0 0 1 0"/>
<feBlend mode="normal" in2="BackgroundImageFix" result="effect1_dropShadow_501_11"/>
<feBlend mode="normal" in="SourceGraphic" in2="effect1_dropShadow_501_11" result="shape"/>
</filter>
<filter id="filter1_d_501_11" x="90.6885" y="107.975" width="483.442" height="94.5352" filterUnits="userSpaceOnUse" color-interpolation-filters="sRGB">
<feFlood flood-opacity="0" result="BackgroundImageFix"/>
<feColorMatrix in="SourceAlpha" type="matrix" values="0 0 0 0 0 0 0 0 0 0 0 0 0 0 0 0 0 0 127 0" result="hardAlpha"/>
<feOffset dx="3" dy="3"/>
<feGaussianBlur stdDeviation="3"/>
<feComposite in2="hardAlpha" operator="out"/>
<feColorMatrix type="matrix" values="0 0 0 0 0.679167 0 0 0 0 0.20375 0 0 0 0 0 0 0 0 1 0"/>
<feBlend mode="normal" in2="BackgroundImageFix" result="effect1_dropShadow_501_11"/>
<feBlend mode="normal" in="SourceGraphic" in2="effect1_dropShadow_501_11" result="shape"/>
</filter>
<filter id="filter2_d_501_11" x="218.675" y="198.845" width="230.462" height="75.835" filterUnits="userSpaceOnUse" color-interpolation-filters="sRGB">
<feFlood flood-opacity="0" result="BackgroundImageFix"/>
<feColorMatrix in="SourceAlpha" type="matrix" values="0 0 0 0 0 0 0 0 0 0 0 0 0 0 0 0 0 0 127 0" result="hardAlpha"/>
<feOffset dx="3" dy="3"/>
<feGaussianBlur stdDeviation="3"/>
<feComposite in2="hardAlpha" operator="out"/>
<feColorMatrix type="matrix" values="0 0 0 0 0.679167 0 0 0 0 0.20375 0 0 0 0 0 0 0 0 1 0"/>
<feBlend mode="normal" in2="BackgroundImageFix" result="effect1_dropShadow_501_11"/>
<feBlend mode="normal" in="SourceGraphic" in2="effect1_dropShadow_501_11" result="shape"/>
</filter>
<radialGradient id="paint0_radial_501_11" cx="0" cy="0" r="1" gradientUnits="userSpaceOnUse" gradientTransform="translate(402.795 81.2109) rotate(81.6445) scale(144.101 136.83)">
<stop stop-color="#FDF455"/>
<stop offset="0.970067" stop-color="#FAD85B"/>
</radialGradient>
</defs>
</svg>
